<svg xmlns="http://www.w3.org/2000/svg" width="235" height="58" fill="none" viewBox="0 0 235 58">
  <g clip-path="url(#clip0_135_1245)">
    <path fill="#FFB30F" d="M204 0h31v57h-31z"/>
    <path fill="#fff" d="M40.373 29.716c0 .848-.142 1.627-.424 2.336-.283.71-.68 1.32-1.192 1.832a5.333 5.333 0 01-1.849 1.192c-.72.283-1.52.424-2.4.424H30.1V23.932h4.408c.88 0 1.68.144 2.4.432.72.283 1.337.68 1.849 1.192.512.507.909 1.115 1.192 1.824.282.71.424 1.488.424 2.336zm-2.209 0c0-.635-.085-1.203-.256-1.704a3.421 3.421 0 00-.727-1.28 3.11 3.11 0 00-1.152-.808 3.92 3.92 0 00-1.52-.28H32.26v8.144h2.247a3.92 3.92 0 001.52-.28 3.154 3.154 0 001.153-.8c.32-.352.562-.779.727-1.28.171-.507.256-1.077.256-1.712zm7.319-2.552c.608 0 1.16.099 1.656.296.501.197.928.477 1.28.84.357.363.632.805.824 1.328.192.523.288 1.107.288 1.752 0 .65-.096 1.237-.288 1.76a3.741 3.741 0 01-.824 1.336c-.352.368-.779.65-1.28.848a4.445 4.445 0 01-1.656.296 4.53 4.53 0 01-1.672-.296 3.616 3.616 0 01-1.288-.848 3.896 3.896 0 01-.824-1.336 5.076 5.076 0 01-.288-1.76c0-.645.096-1.23.288-1.752a3.81 3.81 0 01.824-1.328 3.669 3.669 0 011.288-.84 4.53 4.53 0 011.672-.296zm0 6.936c.683 0 1.187-.23 1.512-.688.33-.459.496-1.13.496-2.016 0-.885-.165-1.56-.496-2.024-.325-.464-.83-.696-1.512-.696-.693 0-1.208.235-1.544.704-.33.464-.496 1.136-.496 2.016 0 .88.165 1.552.496 2.016.336.459.85.688 1.544.688zm10.708-4.712a1.935 1.935 0 00-.736-.576 2.13 2.13 0 00-.849-.168c-.298 0-.568.056-.808.168-.24.112-.445.283-.616.512a2.4 2.4 0 00-.392.864 4.91 4.91 0 00-.136 1.232c0 .48.038.888.112 1.224.08.33.193.603.337.816.143.208.32.36.527.456.209.09.44.136.697.136.41 0 .76-.085 1.047-.256.288-.17.56-.413.816-.728v-3.68zm1.975-5.776V35.5H56.96c-.262 0-.427-.12-.497-.36l-.168-.792c-.33.379-.711.685-1.143.92-.427.235-.926.352-1.497.352-.448 0-.858-.093-1.232-.28a2.798 2.798 0 01-.967-.808c-.267-.357-.475-.797-.624-1.32-.145-.523-.217-1.12-.217-1.792 0-.608.083-1.173.248-1.696.166-.523.403-.976.712-1.36.31-.384.68-.683 1.113-.896a3.178 3.178 0 011.456-.328c.458 0 .85.072 1.175.216.326.144.617.339.873.584v-4.328h1.975zm6.287 8.384c-.571.027-1.051.077-1.44.152-.39.07-.702.16-.936.272-.235.112-.403.243-.504.392a.852.852 0 00-.152.488c0 .347.101.595.304.744.208.15.477.224.808.224.405 0 .754-.072 1.048-.216.298-.15.589-.373.872-.672v-1.384zm-4.528-3.56c.944-.864 2.08-1.296 3.408-1.296.48 0 .909.08 1.288.24.378.155.698.373.96.656.261.277.458.61.592 1 .138.39.208.816.208 1.28V35.5h-.896c-.187 0-.331-.027-.432-.08-.102-.059-.182-.173-.24-.344l-.176-.592c-.208.187-.411.352-.608.496a3.732 3.732 0 01-.616.352 3.138 3.138 0 01-.688.216c-.24.053-.507.08-.8.08-.347 0-.667-.045-.96-.136a2.158 2.158 0 01-.76-.424 1.887 1.887 0 01-.496-.696 2.47 2.47 0 01-.176-.968 1.892 1.892 0 01.44-1.208c.16-.187.365-.363.616-.528a4 4 0 01.92-.432 7.847 7.847 0 011.28-.296c.485-.08 1.04-.128 1.664-.144v-.48c0-.55-.118-.955-.352-1.216-.235-.267-.574-.4-1.016-.4-.32 0-.587.037-.8.112-.208.075-.392.16-.552.256l-.44.248a.841.841 0 01-.432.112.586.586 0 01-.352-.104.956.956 0 01-.232-.256l-.352-.632zm10.365-1.144v8.488c0 .357-.048.693-.144 1.008a2.1 2.1 0 01-.448.824c-.203.24-.472.427-.808.56-.331.139-.736.208-1.216.208-.187 0-.36-.013-.52-.04a2.99 2.99 0 01-.496-.112l.072-1.064c.016-.107.058-.176.128-.208.069-.027.202-.04.4-.04.197 0 .362-.021.496-.064a.649.649 0 00.328-.192.72.72 0 00.168-.344c.037-.144.056-.323.056-.536v-8.488h1.984zm.272-2.392c0 .17-.035.33-.104.48-.07.15-.163.28-.28.392a1.3 1.3 0 01-.408.272 1.284 1.284 0 01-.976 0 1.357 1.357 0 01-.664-.664 1.284 1.284 0 010-.976c.069-.155.16-.288.272-.4.112-.112.242-.2.392-.264a1.199 1.199 0 01.976 0 1.256 1.256 0 01.688.664c.069.155.104.32.104.496zm10.785 4.488a1.936 1.936 0 00-.736-.576 2.13 2.13 0 00-.848-.168c-.299 0-.568.056-.808.168-.24.112-.446.283-.616.512-.17.224-.302.512-.392.864a4.91 4.91 0 00-.136 1.232c0 .48.037.888.112 1.224.08.33.192.603.336.816.144.208.32.36.528.456.208.09.44.136.696.136.41 0 .76-.085 1.048-.256.288-.17.56-.413.816-.728v-3.68zm1.976-5.776V35.5h-1.208c-.262 0-.427-.12-.496-.36l-.168-.792c-.33.379-.712.685-1.144.92-.427.235-.926.352-1.496.352-.448 0-.859-.093-1.232-.28a2.797 2.797 0 01-.968-.808c-.267-.357-.475-.797-.624-1.32-.144-.523-.216-1.12-.216-1.792 0-.608.082-1.173.248-1.696.165-.523.402-.976.712-1.36.31-.384.68-.683 1.112-.896a3.178 3.178 0 011.456-.328c.458 0 .85.072 1.176.216.325.144.616.339.872.584v-4.328h1.976zm5.582 3.552c.608 0 1.16.099 1.656.296.501.197.928.477 1.28.84.357.363.632.805.824 1.328.192.523.288 1.107.288 1.752 0 .65-.096 1.237-.288 1.76a3.741 3.741 0 01-.824 1.336c-.352.368-.779.65-1.28.848a4.445 4.445 0 01-1.656.296 4.53 4.53 0 01-1.672-.296 3.615 3.615 0 01-1.288-.848 3.896 3.896 0 01-.824-1.336 5.076 5.076 0 01-.288-1.76c0-.645.096-1.23.288-1.752a3.81 3.81 0 01.824-1.328 3.668 3.668 0 011.288-.84 4.53 4.53 0 011.672-.296zm0 6.936c.683 0 1.186-.23 1.512-.688.33-.459.496-1.13.496-2.016 0-.885-.165-1.56-.496-2.024-.326-.464-.83-.696-1.512-.696-.694 0-1.208.235-1.544.704-.33.464-.496 1.136-.496 2.016 0 .88.165 1.552.496 2.016.336.459.85.688 1.544.688zm11.422-10.488v6.808h.368a.816.816 0 00.312-.048c.08-.037.16-.11.24-.216l2.04-2.52a.964.964 0 01.28-.256.842.842 0 01.408-.088h1.808l-2.552 3.048a2.12 2.12 0 01-.592.552c.112.08.211.173.296.28.091.107.176.221.256.344l2.736 3.984h-1.784a1.01 1.01 0 01-.4-.072.645.645 0 01-.28-.28l-2.096-3.112c-.075-.123-.152-.203-.232-.24a.89.89 0 00-.36-.056h-.448v3.76h-1.976V23.612h1.976zm9.781 3.552c.608 0 1.16.099 1.656.296.501.197.928.477 1.28.84.357.363.632.805.824 1.328.192.523.288 1.107.288 1.752 0 .65-.096 1.237-.288 1.76a3.745 3.745 0 01-.824 1.336 3.54 3.54 0 01-1.28.848 4.445 4.445 0 01-1.656.296 4.53 4.53 0 01-1.672-.296 3.616 3.616 0 01-1.288-.848 3.891 3.891 0 01-.824-1.336 5.076 5.076 0 01-.288-1.76c0-.645.096-1.23.288-1.752.197-.523.472-.965.824-1.328a3.669 3.669 0 011.288-.84 4.53 4.53 0 011.672-.296zm0 6.936c.683 0 1.187-.23 1.512-.688.331-.459.496-1.13.496-2.016 0-.885-.165-1.56-.496-2.024-.325-.464-.829-.696-1.512-.696-.693 0-1.208.235-1.544.704-.331.464-.496 1.136-.496 2.016 0 .88.165 1.552.496 2.016.336.459.851.688 1.544.688zm10.564-5.208a.587.587 0 01-.168.184.467.467 0 01-.224.048.731.731 0 01-.312-.08 9.54 9.54 0 00-.376-.176c-.144-.07-.31-.13-.497-.184a2.309 2.309 0 00-.647-.08c-.39 0-.696.083-.92.248a.774.774 0 00-.328.648.64.64 0 00.168.448c.117.117.269.221.456.312.192.09.408.173.648.248.24.07.482.147.728.232.25.085.496.184.736.296.24.107.453.245.64.416.192.165.344.365.456.6.117.235.176.517.176.848 0 .395-.072.76-.216 1.096a2.37 2.37 0 01-.624.864c-.278.24-.622.43-1.032.568-.406.133-.875.2-1.408.2-.283 0-.56-.027-.832-.08a4.477 4.477 0 01-1.464-.528 3.417 3.417 0 01-.552-.4l.456-.752a.645.645 0 01.207-.208.586.586 0 01.305-.072c.122 0 .237.035.344.104.112.07.24.144.384.224.144.08.312.155.504.224.197.07.445.104.744.104.234 0 .434-.027.6-.08.17-.059.309-.133.416-.224a.792.792 0 00.24-.312.94.94 0 00.08-.376.656.656 0 00-.176-.472 1.435 1.435 0 00-.457-.32 3.908 3.908 0 00-.647-.24c-.24-.075-.488-.155-.744-.24a7.913 7.913 0 01-.744-.296 2.722 2.722 0 01-.648-.44 2.044 2.044 0 01-.456-.648c-.112-.256-.168-.565-.168-.928 0-.336.066-.656.2-.96.133-.304.328-.568.584-.792.261-.23.584-.41.968-.544a3.993 3.993 0 011.344-.208c.565 0 1.08.093 1.544.28.464.187.85.432 1.16.736l-.448.712zm7.919-.784c0 .139-.024.275-.072.408a.936.936 0 01-.192.328l-3.896 5.136h4.04v1.52h-6.336v-.824c0-.09.021-.197.064-.32.042-.128.106-.248.192-.36l3.936-5.192h-3.96v-1.512h6.224v.816zm8.919-.816l-4.472 10.464a.72.72 0 01-.232.312c-.091.075-.232.112-.424.112h-1.472l1.536-3.296-3.32-7.592h1.736c.155 0 .275.037.36.112a.7.7 0 01.2.256l1.744 4.256c.059.144.107.288.144.432.043.144.083.29.12.44.048-.15.096-.296.144-.44.048-.15.101-.296.16-.44l1.648-4.248a.58.58 0 01.544-.368h1.584zm2.958-3.68v6.808h.368a.816.816 0 00.312-.048c.08-.037.16-.11.24-.216l2.04-2.52a.952.952 0 01.28-.256.837.837 0 01.408-.088h1.808l-2.552 3.048c-.182.24-.379.424-.592.552.112.08.21.173.296.28.09.107.176.221.256.344l2.736 3.984h-1.784a1.01 1.01 0 01-.4-.072.64.64 0 01-.28-.28l-2.096-3.112c-.075-.123-.152-.203-.232-.24a.89.89 0 00-.36-.056h-.448v3.76h-1.976V23.612h1.976zm10.907 8.384c-.571.027-1.051.077-1.44.152-.39.07-.702.16-.936.272-.235.112-.403.243-.504.392a.847.847 0 00-.152.488c0 .347.101.595.304.744.208.15.477.224.808.224.405 0 .754-.072 1.048-.216.298-.15.589-.373.872-.672v-1.384zm-4.528-3.56c.944-.864 2.08-1.296 3.408-1.296.48 0 .909.08 1.288.24.378.155.698.373.96.656.261.277.458.61.592 1 .138.39.208.816.208 1.28V35.5h-.896c-.187 0-.331-.027-.432-.08-.102-.059-.182-.173-.24-.344l-.176-.592a7.849 7.849 0 01-.608.496 3.777 3.777 0 01-.616.352 3.156 3.156 0 01-.688.216c-.24.053-.507.08-.8.08-.347 0-.667-.045-.96-.136a2.149 2.149 0 01-.76-.424 1.875 1.875 0 01-.496-.696 2.457 2.457 0 01-.176-.968 1.874 1.874 0 01.44-1.208c.16-.187.365-.363.616-.528.25-.165.557-.31.92-.432a7.83 7.83 0 011.28-.296c.485-.08 1.04-.128 1.664-.144v-.48c0-.55-.118-.955-.352-1.216-.235-.267-.574-.4-1.016-.4-.32 0-.587.037-.8.112-.208.075-.392.16-.552.256l-.44.248a.841.841 0 01-.432.112.585.585 0 01-.352-.104.945.945 0 01-.232-.256l-.352-.632z"/>
    <g filter="url(#filter0_d_135_1245)">
      <circle cx="206.5" cy="29" r="28.5" fill="#FFB30F"/>
    </g>
    <g clip-path="url(#clip1_135_1245)">
      <path fill="#fff" d="M208.605 23.737a1.054 1.054 0 00-1.052-1.052 1.051 1.051 0 00-1.053 1.052v3.158h-3.157a1.054 1.054 0 00-.745 1.797c.198.197.465.308.745.308h3.157v3.158a1.05 1.05 0 001.053 1.052 1.051 1.051 0 001.052-1.052V29h3.158a1.051 1.051 0 100-2.105h-3.158v-3.158z"/>
      <path fill="#fff" d="M214.921 37.42h2.105a1.05 1.05 0 001.033-.858l3.158-16.841a1.056 1.056 0 00-.587-1.146 1.049 1.049 0 00-.447-.1h-24.44l-.853-3.413a1.048 1.048 0 00-1.021-.798h-3.157a1.056 1.056 0 00-1.053 1.053 1.054 1.054 0 001.053 1.052h2.336l.845 3.383 3.153 16.81a1.05 1.05 0 001.034.858h2.105m14.736 0h-14.736m14.736 0a4.212 4.212 0 012.977 7.188 4.212 4.212 0 01-7.188-2.977 4.212 4.212 0 014.211-4.21zm-14.736 0a4.212 4.212 0 012.977 7.188 4.212 4.212 0 01-5.954 0 4.208 4.208 0 010-5.954 4.208 4.208 0 012.977-1.234zm-1.232-2.105l-2.764-14.735h22.727l-2.764 14.735h-17.199zm3.337 6.316a2.105 2.105 0 11-4.21 0 2.105 2.105 0 014.21 0zm14.736 0a2.105 2.105 0 11-4.21 0 2.105 2.105 0 014.21 0z"/>
      <path stroke="#fff" d="M214.921 37.42h2.105a1.05 1.05 0 001.033-.858l3.158-16.841a1.056 1.056 0 00-.587-1.146 1.049 1.049 0 00-.447-.1h-24.44l-.853-3.413a1.048 1.048 0 00-1.021-.798h-3.157a1.056 1.056 0 00-1.053 1.053 1.054 1.054 0 001.053 1.052h2.336l.845 3.383 3.153 16.81a1.05 1.05 0 001.034.858h2.105m14.736 0h-14.736m14.736 0a4.212 4.212 0 012.977 7.188 4.212 4.212 0 01-7.188-2.977 4.212 4.212 0 014.211-4.21zm-14.736 0a4.212 4.212 0 012.977 7.188 4.212 4.212 0 01-5.954 0 4.208 4.208 0 010-5.954 4.208 4.208 0 012.977-1.234zm-1.232-2.105l-2.764-14.735h22.727l-2.764 14.735h-17.199zm3.337 6.316a2.105 2.105 0 11-4.21 0 2.105 2.105 0 014.21 0zm14.736 0a2.105 2.105 0 11-4.21 0 2.105 2.105 0 014.21 0z"/>
    </g>
  </g>
  <path fill="#FFB30F" d="M29 3h177v-6H29v6zm177 52H29v6h177v-6zM29 55C14.64 55 3 43.36 3 29h-6c0 17.673 14.327 32 32 32v-6zm203-26c0 14.36-11.641 26-26 26v6c17.673 0 32-14.327 32-32h-6zM206 3c14.359 0 26 11.64 26 26h6c0-17.673-14.327-32-32-32v6zM29-3C11.327-3-3 11.327-3 29h6C3 14.64 14.64 3 29 3v-6z"/>
  <defs>
    <clipPath id="clip0_135_1245">
      <path fill="#fff" d="M0 29C0 12.984 12.984 0 29 0h177c16.016 0 29 12.984 29 29s-12.984 29-29 29H29C12.984 58 0 45.016 0 29z"/>
    </clipPath>
    <clipPath id="clip1_135_1245">
      <path fill="#fff" d="M0 0h33.682v33.682H0z" transform="translate(189.659 12.16)"/>
    </clipPath>
    <filter id="filter0_d_135_1245" width="69.954" height="69.954" x="171.523" y="-5.977" color-interpolation-filters="sRGB" filterUnits="userSpaceOnUse">
      <feFlood flood-opacity="0" result="BackgroundImageFix"/>
      <feColorMatrix in="SourceAlpha" result="hardAlpha" values="0 0 0 0 0 0 0 0 0 0 0 0 0 0 0 0 0 0 127 0"/>
      <feMorphology in="SourceAlpha" operator="dilate" radius="1.295" result="effect1_dropShadow_135_1245"/>
      <feOffset/>
      <feGaussianBlur stdDeviation="2.591"/>
      <feComposite in2="hardAlpha" operator="out"/>
      <feColorMatrix values="0 0 0 0 0 0 0 0 0 0 0 0 0 0 0 0 0 0 0.25 0"/>
      <feBlend in2="BackgroundImageFix" result="effect1_dropShadow_135_1245"/>
      <feBlend in="SourceGraphic" in2="effect1_dropShadow_135_1245" result="shape"/>
    </filter>
  </defs>
</svg>
