<svg xmlns="http://www.w3.org/2000/svg" width="488" height="226" fill="none" viewBox="0 0 488 226">
  <g filter="url(#filter0_d_126_1151)">
    <rect width="82.506" height="82.506" x="83.367" y="112.854" fill="#fff" rx="7.735" transform="rotate(-179 83.367 112.854)"/>
    <g clip-path="url(#clip0_126_1151)">
      <path fill="#000" d="M58.713 47.956a7.735 7.735 0 1115.467.27 7.735 7.735 0 01-15.467-.27zM11.5 93.549a7.735 7.735 0 1115.468.27 7.735 7.735 0 01-15.467-.27z"/>
    </g>
    <rect width="82.506" height="82.506" x="83.367" y="112.854" stroke="#000" stroke-width="1.719" rx="7.735" transform="rotate(-179 83.367 112.854)"/>
  </g>
  <g filter="url(#filter1_d_126_1151)">
    <g clip-path="url(#clip1_126_1151)">
      <rect width="79.006" height="79.006" x="243.881" y="111.119" fill="#fff" rx="8.062" transform="rotate(-141 243.881 111.119)"/>
      <g clip-path="url(#clip2_126_1151)">
        <path fill="#000" d="M263.017 47.776a7.256 7.256 0 1111.278 9.132 7.256 7.256 0 01-11.278-9.132zM201.788 54.21a7.256 7.256 0 1111.278 9.134 7.256 7.256 0 01-11.278-9.133z"/>
      </g>
    </g>
    <rect width="77.393" height="77.393" x="243.762" y="109.985" stroke="#000" stroke-width="1.612" rx="7.256" transform="rotate(-141 243.762 109.985)"/>
  </g>
  <g filter="url(#filter2_d_126_1151)">
    <g clip-path="url(#clip3_126_1151)">
      <rect width="79.006" height="79.006" x="403.505" y="111.119" fill="#fff" rx="8.062" transform="rotate(-100 403.505 111.119)"/>
      <g clip-path="url(#clip4_126_1151)">
        <path fill="#000" d="M416.631 83.428a7.256 7.256 0 112.52 14.291 7.256 7.256 0 01-2.52-14.291zM438.067 79.648a7.256 7.256 0 112.52 14.291 7.256 7.256 0 01-2.52-14.291zM430.508 36.775a7.255 7.255 0 112.52 14.291 7.255 7.255 0 01-2.52-14.29zM459.504 75.868a7.256 7.256 0 112.52 14.29 7.256 7.256 0 01-2.52-14.29zM409.072 40.555a7.255 7.255 0 112.52 14.29 7.255 7.255 0 01-2.52-14.29zM451.944 32.996a7.255 7.255 0 112.52 14.291 7.255 7.255 0 01-2.52-14.291z"/>
      </g>
    </g>
    <rect width="77.393" height="77.393" x="404.159" y="110.185" stroke="#000" stroke-width="1.612" rx="7.256" transform="rotate(-100 404.159 110.185)"/>
  </g>
  <g filter="url(#filter3_d_126_1151)">
    <rect width="69.425" height="69.425" x="41.541" y="150.259" fill="#fff" rx="6.509" transform="rotate(-7 41.541 150.259)"/>
    <g clip-path="url(#clip5_126_1151)">
      <path fill="#000" d="M64.925 162.688a6.508 6.508 0 11-12.92 1.586 6.509 6.509 0 0112.92-1.586zM86.685 179.688a6.51 6.51 0 11-12.921 1.587 6.51 6.51 0 0112.921-1.587zM69.684 201.448a6.508 6.508 0 11-12.92 1.586 6.508 6.508 0 0112.92-1.586zM103.686 157.929a6.509 6.509 0 11-12.92 1.586 6.509 6.509 0 0112.92-1.586zM108.445 196.689a6.51 6.51 0 11-12.921 1.587 6.51 6.51 0 0112.921-1.587z"/>
    </g>
    <rect width="69.425" height="69.425" x="41.541" y="150.259" stroke="#000" stroke-width="1.446" rx="6.509" transform="rotate(-7 41.541 150.259)"/>
  </g>
  <g filter="url(#filter4_d_126_1151)">
    <g clip-path="url(#clip6_126_1151)">
      <rect width="59.978" height="59.978" x="214.526" y="189.241" fill="#fff" rx="6.12" transform="rotate(-155 214.526 189.241)"/>
      <g clip-path="url(#clip7_126_1151)">
        <path fill="#000" d="M203.022 169.02a5.508 5.508 0 119.984 4.656 5.508 5.508 0 11-9.984-4.656zM195.029 147.06a5.508 5.508 0 119.984 4.656 5.508 5.508 0 11-9.984-4.656zM216.989 139.067a5.508 5.508 0 119.984 4.656 5.508 5.508 0 11-9.984-4.656zM173.069 155.053a5.508 5.508 0 119.984 4.656 5.508 5.508 0 01-9.984-4.656zM187.036 125.1a5.508 5.508 0 119.984 4.656 5.508 5.508 0 01-9.984-4.656z"/>
      </g>
    </g>
    <rect width="58.754" height="58.754" x="214.23" y="188.428" stroke="#000" stroke-width="1.224" rx="5.508" transform="rotate(-155 214.23 188.428)"/>
  </g>
  <g filter="url(#filter5_d_126_1151)">
    <g clip-path="url(#clip8_126_1151)">
      <rect width="81.599" height="81.599" x="309.831" y="214.225" fill="#fff" rx="8.326" transform="rotate(-112 309.831 214.225)"/>
      <g clip-path="url(#clip9_126_1151)">
        <path fill="#000" d="M358.835 166.587a7.494 7.494 0 115.614 13.897 7.494 7.494 0 01-5.614-13.897zM300.303 141.742a7.492 7.492 0 019.755 4.141 7.493 7.493 0 01-4.141 9.755 7.493 7.493 0 01-9.755-4.141 7.492 7.492 0 014.141-9.755z"/>
      </g>
    </g>
    <rect width="79.934" height="79.934" x="310.291" y="213.141" stroke="#000" stroke-width="1.665" rx="7.494" transform="rotate(-112 310.291 213.141)"/>
  </g>
  <defs>
    <clipPath id="clip0_126_1151">
      <path fill="#fff" d="M0 0h61.879v61.879H0z" transform="rotate(-179 37.064 50.861)"/>
    </clipPath>
    <clipPath id="clip1_126_1151">
      <rect width="79.006" height="79.006" x="243.881" y="111.119" fill="#fff" rx="8.062" transform="rotate(-141 243.881 111.119)"/>
    </clipPath>
    <clipPath id="clip2_126_1151">
      <path fill="#fff" d="M0 0h58.045v58.045H0z" transform="rotate(-141 138.23 5.282)"/>
    </clipPath>
    <clipPath id="clip3_126_1151">
      <rect width="79.006" height="79.006" x="403.505" y="111.119" fill="#fff" rx="8.062" transform="rotate(-100 403.505 111.119)"/>
    </clipPath>
    <clipPath id="clip4_126_1151">
      <path fill="#fff" d="M0 0h58.045v58.045H0z" transform="rotate(-100 247.53 -123.368)"/>
    </clipPath>
    <clipPath id="clip5_126_1151">
      <path fill="#fff" d="M0 0h52.069v52.069H0z" transform="rotate(-7 1315.724 -339.747)"/>
    </clipPath>
    <clipPath id="clip6_126_1151">
      <rect width="59.978" height="59.978" x="214.526" y="189.241" fill="#fff" rx="6.12" transform="rotate(-155 214.526 189.241)"/>
    </clipPath>
    <clipPath id="clip7_126_1151">
      <path fill="#fff" d="M0 0h44.065v44.065H0z" transform="rotate(-155 125.144 65.98)"/>
    </clipPath>
    <clipPath id="clip8_126_1151">
      <rect width="81.599" height="81.599" x="309.831" y="214.225" fill="#fff" rx="8.326" transform="rotate(-112 309.831 214.225)"/>
    </clipPath>
    <clipPath id="clip9_126_1151">
      <path fill="#fff" d="M0 0h59.951v59.951H0z" transform="rotate(-112 225.402 -6.442)"/>
    </clipPath>
    <filter id="filter0_d_126_1151" width="92.557" height="92.557" x="0" y="28.046" color-interpolation-filters="sRGB" filterUnits="userSpaceOnUse">
      <feFlood flood-opacity="0" result="BackgroundImageFix"/>
      <feColorMatrix in="SourceAlpha" result="hardAlpha" values="0 0 0 0 0 0 0 0 0 0 0 0 0 0 0 0 0 0 127 0"/>
      <feOffset dx="6.875" dy="6.875"/>
      <feColorMatrix values="0 0 0 0 0 0 0 0 0 0 0 0 0 0 0 0 0 0 1 0"/>
      <feBlend in2="BackgroundImageFix" result="effect1_dropShadow_126_1151"/>
      <feBlend in="SourceGraphic" in2="effect1_dropShadow_126_1151" result="shape"/>
    </filter>
    <filter id="filter1_d_126_1151" width="117.568" height="117.568" x="182.482" y="0" color-interpolation-filters="sRGB" filterUnits="userSpaceOnUse">
      <feFlood flood-opacity="0" result="BackgroundImageFix"/>
      <feColorMatrix in="SourceAlpha" result="hardAlpha" values="0 0 0 0 0 0 0 0 0 0 0 0 0 0 0 0 0 0 127 0"/>
      <feOffset dx="6.449" dy="6.449"/>
      <feColorMatrix values="0 0 0 0 0 0 0 0 0 0 0 0 0 0 0 0 0 0 1 0"/>
      <feBlend in2="BackgroundImageFix" result="effect1_dropShadow_126_1151"/>
      <feBlend in="SourceGraphic" in2="effect1_dropShadow_126_1151" result="shape"/>
    </filter>
    <filter id="filter2_d_126_1151" width="97.974" height="97.974" x="389.785" y="19.594" color-interpolation-filters="sRGB" filterUnits="userSpaceOnUse">
      <feFlood flood-opacity="0" result="BackgroundImageFix"/>
      <feColorMatrix in="SourceAlpha" result="hardAlpha" values="0 0 0 0 0 0 0 0 0 0 0 0 0 0 0 0 0 0 127 0"/>
      <feOffset dx="6.449" dy="6.449"/>
      <feColorMatrix values="0 0 0 0 0 0 0 0 0 0 0 0 0 0 0 0 0 0 1 0"/>
      <feBlend in2="BackgroundImageFix" result="effect1_dropShadow_126_1151"/>
      <feBlend in="SourceGraphic" in2="effect1_dropShadow_126_1151" result="shape"/>
    </filter>
    <filter id="filter3_d_126_1151" width="84.765" height="84.765" x="40.735" y="140.992" color-interpolation-filters="sRGB" filterUnits="userSpaceOnUse">
      <feFlood flood-opacity="0" result="BackgroundImageFix"/>
      <feColorMatrix in="SourceAlpha" result="hardAlpha" values="0 0 0 0 0 0 0 0 0 0 0 0 0 0 0 0 0 0 127 0"/>
      <feOffset dx="5.785" dy="5.785"/>
      <feColorMatrix values="0 0 0 0 0 0 0 0 0 0 0 0 0 0 0 0 0 0 1 0"/>
      <feBlend in2="BackgroundImageFix" result="effect1_dropShadow_126_1151"/>
      <feBlend in="SourceGraphic" in2="effect1_dropShadow_126_1151" result="shape"/>
    </filter>
    <filter id="filter4_d_126_1151" width="84.603" height="84.603" x="160.168" y="109.535" color-interpolation-filters="sRGB" filterUnits="userSpaceOnUse">
      <feFlood flood-opacity="0" result="BackgroundImageFix"/>
      <feColorMatrix in="SourceAlpha" result="hardAlpha" values="0 0 0 0 0 0 0 0 0 0 0 0 0 0 0 0 0 0 127 0"/>
      <feOffset dx="4.896" dy="4.896"/>
      <feColorMatrix values="0 0 0 0 0 0 0 0 0 0 0 0 0 0 0 0 0 0 1 0"/>
      <feBlend in2="BackgroundImageFix" result="effect1_dropShadow_126_1151"/>
      <feBlend in="SourceGraphic" in2="effect1_dropShadow_126_1151" result="shape"/>
    </filter>
    <filter id="filter5_d_126_1151" width="112.887" height="112.887" x="279.264" y="108" color-interpolation-filters="sRGB" filterUnits="userSpaceOnUse">
      <feFlood flood-opacity="0" result="BackgroundImageFix"/>
      <feColorMatrix in="SourceAlpha" result="hardAlpha" values="0 0 0 0 0 0 0 0 0 0 0 0 0 0 0 0 0 0 127 0"/>
      <feOffset dx="6.661" dy="6.661"/>
      <feColorMatrix values="0 0 0 0 0 0 0 0 0 0 0 0 0 0 0 0 0 0 1 0"/>
      <feBlend in2="BackgroundImageFix" result="effect1_dropShadow_126_1151"/>
      <feBlend in="SourceGraphic" in2="effect1_dropShadow_126_1151" result="shape"/>
    </filter>
  </defs>
</svg>
