<svg xmlns="http://www.w3.org/2000/svg" width="189" height="17" fill="none" viewBox="0 0 189 17">
  <path fill="#FFB30F" d="M3.84 16.115c-.411.21-.877-.158-.794-.63l.883-5.029L.183 6.888c-.35-.334-.168-.944.3-1.01l5.209-.74L8.014.537a.546.546 0 01.985 0l2.323 4.6 5.208.74c.469.067.65.677.3 1.01l-3.745 3.57.882 5.029c.083.47-.383.84-.793.63l-4.669-2.4-4.667 2.4h.001zM22.08 16.115c-.411.21-.877-.158-.794-.63l.883-5.029-3.746-3.568c-.35-.334-.168-.944.3-1.01l5.209-.74L26.254.537a.546.546 0 01.986 0l2.322 4.6 5.208.74c.469.067.65.677.3 1.01l-3.745 3.57.883 5.029c.083.47-.383.84-.794.63l-4.669-2.4-4.667 2.4h.002zM40.319 16.115c-.41.21-.876-.158-.794-.63l.883-5.029-3.746-3.568c-.35-.334-.168-.944.3-1.01l5.209-.74L44.493.537a.546.546 0 01.986 0l2.322 4.6 5.208.74c.47.067.651.677.3 1.01l-3.745 3.57.883 5.029c.083.47-.383.84-.794.63l-4.669-2.4-4.666 2.4zM57.873 15.485a.579.579 0 00.821.63l4.832-2.399 4.831 2.4a.579.579 0 00.822-.63l-.914-5.03 3.877-3.568c.363-.334.176-.944-.31-1.01l-5.392-.74-2.404-4.6a.552.552 0 00-.208-.228.58.58 0 00-.604 0 .552.552 0 00-.208.227L60.612 5.14l-5.392.74c-.485.066-.673.676-.311 1.01l3.877 3.568-.913 5.03v-.002zm5.399-2.942l-4.057 2.013.764-4.207a.581.581 0 00-.18-.537L56.6 6.867l4.46-.613a.589.589 0 00.256-.101.563.563 0 00.177-.205l2.031-3.89 2.033 3.89a.564.564 0 00.177.205.59.59 0 00.256.101l4.46.612L67.25 9.81a.598.598 0 00-.18.538l.765 4.207-4.058-2.013a.569.569 0 00-.507 0h.001zM76.712 15.485c-.086.472.396.84.82.63l4.833-2.399 4.831 2.4a.579.579 0 00.821-.63l-.913-5.03 3.877-3.568c.363-.334.176-.944-.31-1.01l-5.392-.74-2.404-4.6a.552.552 0 00-.209-.228.58.58 0 00-.603 0 .552.552 0 00-.209.227L79.45 5.14l-5.391.74c-.485.066-.674.676-.311 1.01l3.877 3.568-.913 5.03v-.002zm5.399-2.942l-4.057 2.013.763-4.207a.581.581 0 00-.179-.537L75.44 6.867l4.46-.613a.589.589 0 00.256-.101.563.563 0 00.177-.205l2.03-3.89 2.034 3.89a.563.563 0 00.177.205.589.589 0 00.256.101l4.46.612L86.09 9.81a.598.598 0 00-.18.538l.764 4.207-4.057-2.013a.569.569 0 00-.507 0z"/>
</svg>
