<svg xmlns="http://www.w3.org/2000/svg" width="80" height="80" fill="none" viewBox="0 0 80 80">
  <circle cx="40" cy="40" r="40" fill="#404040" transform="rotate(-180 40 40)"/>
  <mask id="a" width="80" height="81" x="0" y="0" maskUnits="userSpaceOnUse" style="mask-type:alpha">
    <circle cx="40" cy="40" r="38" stroke="#FFB30F" stroke-linecap="round" stroke-miterlimit="9.567" stroke-width="4" transform="rotate(-180 40 40)"/>
  </mask>
  <g mask="url(#a)">
    <path fill="#FCE373" d="M40 87H0v-98h40z"/>
  </g>
  <path fill="#fff" d="M54.23 49.602c-.14.97-.41 1.82-.812 2.548a6.06 6.06 0 01-1.498 1.834 6.155 6.155 0 01-2.072 1.106 8.188 8.188 0 01-2.52.378c-.933 0-1.773-.135-2.52-.406-.756-.261-1.4-.63-1.932-1.106a4.697 4.697 0 01-1.218-1.652 4.902 4.902 0 01-.434-2.058c0-.644.075-1.213.224-1.708.14-.485.346-.91.616-1.274a3.68 3.68 0 011.008-.924 6.273 6.273 0 011.358-.63c-1.213-.383-2.118-.966-2.716-1.75-.597-.784-.896-1.769-.896-2.954 0-1.008.187-1.9.56-2.674a5.817 5.817 0 011.512-1.96 6.648 6.648 0 012.212-1.19 8.49 8.49 0 012.646-.406c1.018 0 1.904.117 2.66.35a5.777 5.777 0 011.974 1.036 6.259 6.259 0 011.428 1.68c.392.663.728 1.428 1.008 2.296l-1.526.63c-.401.168-.775.21-1.12.126-.354-.075-.611-.261-.77-.56-.168-.327-.35-.649-.546-.966a4.25 4.25 0 00-.728-.854 3.685 3.685 0 00-.98-.602c-.383-.15-.835-.224-1.358-.224-.588 0-1.101.093-1.54.28a3.35 3.35 0 00-1.092.756 2.948 2.948 0 00-.658 1.022c-.15.383-.224.765-.224 1.148 0 .486.051.924.154 1.316.103.401.318.742.644 1.022.327.28.798.5 1.414.658.607.159 1.423.238 2.45.238v2.464c-.85.01-1.554.089-2.114.238-.56.15-1.003.355-1.33.616-.336.27-.57.593-.7.966s-.196.784-.196 1.232c0 .952.266 1.675.798 2.17.532.495 1.242.742 2.128.742.41 0 .789-.06 1.134-.182a3.101 3.101 0 001.624-1.218c.187-.28.327-.588.42-.924.159-.43.369-.714.63-.854.252-.14.611-.172 1.078-.098l1.82.322zm-30.27-4.48c0-1.764.191-3.3.574-4.606.373-1.297.896-2.37 1.568-3.22.663-.85 1.451-1.484 2.366-1.904a7.033 7.033 0 012.94-.616c1.055 0 2.035.205 2.94.616.896.42 1.675 1.055 2.338 1.904.663.85 1.18 1.923 1.554 3.22.373 1.307.56 2.842.56 4.606 0 1.773-.187 3.309-.56 4.606-.373 1.297-.891 2.37-1.554 3.22-.663.85-1.442 1.48-2.338 1.89a6.9 6.9 0 01-2.94.63 6.9 6.9 0 01-2.94-.63c-.915-.41-1.703-1.04-2.366-1.89-.672-.85-1.195-1.922-1.568-3.22-.383-1.297-.574-2.833-.574-4.606zm3.57 0c0 1.465.107 2.679.322 3.64.215.962.504 1.727.868 2.296.355.57.765.966 1.232 1.19.467.233.952.35 1.456.35.495 0 .975-.117 1.442-.35.457-.224.863-.62 1.218-1.19s.64-1.334.854-2.296c.205-.961.308-2.175.308-3.64 0-1.465-.103-2.678-.308-3.64-.215-.961-.5-1.727-.854-2.296-.355-.57-.76-.97-1.218-1.204a3.297 3.297 0 00-2.898 0c-.467.233-.877.635-1.232 1.204-.364.57-.653 1.335-.868 2.296-.215.962-.322 2.175-.322 3.64zM52.822 27.626a.333.333 0 01.094-.105.259.259 0 01.126-.027.42.42 0 01.198.06c.07.04.156.085.259.132.099.048.216.092.352.132.135.04.297.06.484.06.154 0 .295-.02.423-.06a.929.929 0 00.32-.16.678.678 0 00.274-.538c0-.14-.04-.255-.12-.347a1.109 1.109 0 00-.325-.236 3.581 3.581 0 00-.457-.182 16.841 16.841 0 01-.522-.165 4.97 4.97 0 01-.523-.203 1.733 1.733 0 01-.456-.28 1.211 1.211 0 01-.451-.979c0-.261.047-.503.143-.727.091-.22.229-.41.412-.572.18-.161.404-.288.671-.38.268-.091.574-.137.919-.137.385 0 .74.064 1.067.193.326.128.6.291.82.49l-.254.412a.303.303 0 01-.286.16.375.375 0 01-.214-.078 4.943 4.943 0 00-.264-.17 2.278 2.278 0 00-.374-.165 1.806 1.806 0 00-.55-.072c-.184 0-.343.022-.479.066-.136.048-.247.11-.335.187a.77.77 0 00-.27.6c0 .146.042.267.127.363a1 1 0 00.324.253c.132.07.284.13.457.181.172.052.348.107.528.165.18.059.355.127.528.204.172.077.326.174.462.291.132.117.24.26.324.43.08.168.121.373.121.615 0 .216-.044.424-.132.622a1.587 1.587 0 01-.39.522c-.173.15-.384.27-.633.358-.253.091-.54.137-.863.137-.37 0-.704-.058-1.001-.176a2.293 2.293 0 01-.77-.484l.236-.39zm-5.187-1.21c0 .212.031.409.093.588.059.18.147.336.264.468.118.132.26.234.43.308.168.073.362.11.582.11.451 0 .807-.13 1.067-.39.257-.261.42-.622.49-1.084h-2.926zm-.886-2.618c.132-.154.284-.288.457-.402.172-.11.355-.2.55-.27.194-.069.396-.12.605-.153.205-.033.409-.05.61-.05.385 0 .743.064 1.073.193.326.132.61.322.852.572.239.253.426.564.561.935.132.374.198.803.198 1.287 0 .388-.06.75-.181 1.083-.121.338-.293.63-.517.88-.227.25-.504.446-.83.589a2.713 2.713 0 01-1.1.214c-.342 0-.655-.057-.941-.17a2.06 2.06 0 01-.748-.484 2.22 2.22 0 01-.49-.787 2.932 2.932 0 01-.181-1.067c0-.165.018-.277.055-.335.036-.055.104-.083.203-.083h3.663a3.048 3.048 0 00-.143-.874 1.788 1.788 0 00-.346-.616 1.41 1.41 0 00-.534-.369 1.867 1.867 0 00-.687-.12c-.239 0-.444.027-.616.082a3.06 3.06 0 00-.77.357.454.454 0 01-.231.083.236.236 0 01-.204-.1l-.308-.395zm-2.307 7.32v-4.746h-.253a.49.49 0 00-.193.033.453.453 0 00-.16.132l-1.671 1.842a.514.514 0 01-.17.154.46.46 0 01-.237.055h-.98l1.975-2.161c.106-.136.22-.24.341-.314a.864.864 0 01-.181-.165 2.284 2.284 0 01-.16-.203L40.653 23h.962c.088 0 .165.015.23.044.063.03.12.083.171.16l1.727 2.244c.055.084.11.137.165.16a.61.61 0 00.248.038h.286V23h1.072v8.118h-1.072zm-9.237-2.53V23h.644c.147 0 .242.072.286.215l.077.56c.12-.128.247-.245.38-.351.131-.107.273-.198.423-.275.15-.074.31-.13.478-.17.17-.045.35-.067.545-.067.308 0 .58.052.814.154.23.103.425.246.583.43.158.186.277.41.357.67.081.26.121.548.121.864v3.558h-1.078V25.03c0-.4-.091-.712-.275-.935-.183-.22-.463-.33-.841-.33a1.6 1.6 0 00-.77.192 2.68 2.68 0 00-.671.54v4.091h-1.073zm-2.503-.775a3.775 3.775 0 01-.38.352 2.31 2.31 0 01-.896.445 2.216 2.216 0 01-.55.066c-.308 0-.578-.051-.809-.154a1.59 1.59 0 01-.588-.434 1.841 1.841 0 01-.358-.666 2.907 2.907 0 01-.12-.863V23h1.077v3.559c0 .4.092.71.275.93.184.223.464.335.842.335.275 0 .533-.066.775-.198.239-.129.46-.305.666-.528V23h1.072v5.588h-.643c-.15 0-.244-.071-.28-.214l-.083-.561zm-8.751-.578c.176.231.366.393.572.484.201.092.429.138.682.138.491 0 .872-.178 1.144-.534.267-.352.401-.867.401-1.545 0-.356-.03-.66-.088-.913a1.836 1.836 0 00-.264-.616 1.099 1.099 0 00-.429-.352 1.421 1.421 0 00-.572-.11c-.311 0-.581.07-.808.209-.228.139-.44.335-.638.588v2.651zm-1.078 3.883V23h.649c.15 0 .244.072.28.215l.094.643c.238-.282.51-.51.814-.682a2.1 2.1 0 011.045-.253c.319 0 .608.063.869.187.256.125.476.306.66.545.183.242.324.54.423.896.1.356.149.765.149 1.227 0 .414-.055.799-.165 1.155-.11.355-.27.663-.479.924-.209.26-.462.463-.759.61-.297.15-.632.226-1.006.226-.338 0-.624-.055-.858-.165a2.019 2.019 0 01-.638-.468v3.058h-1.078z"/>
  <g>
    <circle cx="40" cy="40" r="40" fill="#404040" transform="rotate(-180 40 40)"/>
    <mask id="b" width="80" height="81" x="0" y="0" maskUnits="userSpaceOnUse" style="mask-type:alpha">
      <circle cx="40" cy="40" r="38" stroke="#F8E280" stroke-linecap="round" stroke-miterlimit="9.567" stroke-width="4" transform="rotate(-180 40 40)"/>
    </mask>
    <g mask="url(#b)">
      <path fill="#FCE373" d="M80 35H4V-6h76z"/>
      <path fill="#FCE373" d="M40 87H0v-98h40z"/>
    </g>
    <path fill="#fff" d="M41.252 37.59V35h11.2v2.59H48.35v11.802c0 .467-.014.947-.042 1.442l2.912-2.436c.168-.13.336-.215.504-.252a1.22 1.22 0 01.84.14.89.89 0 01.252.238l1.092 1.498-6.174 5.25h-2.842V37.59h-3.64zm-11.72 5.04v6.622c0 .625-.042 1.316-.126 2.072l6.286-8.694h-6.16zm-5.558 0v-2.002c0-.187.06-.35.182-.49.121-.13.294-.196.518-.196h1.848V35h3.01v4.942h8.54c.233 0 .439.07.616.21a.97.97 0 01.336.546l.364 1.75-9.59 12.81h-3.276V42.63h-2.548zM52.77 23v5.588h-.643c-.15 0-.244-.071-.28-.214l-.078-.534a2.822 2.822 0 01-.682.6 1.639 1.639 0 01-.885.236c-.37 0-.671-.102-.902-.308-.231-.201-.4-.476-.506-.825a1.738 1.738 0 01-.743.864c-.157.091-.324.16-.5.203a2.28 2.28 0 01-.545.066 2.06 2.06 0 01-.792-.143 1.537 1.537 0 01-.594-.407 1.801 1.801 0 01-.368-.665 2.962 2.962 0 01-.127-.902V23h1.078v3.559c0 .418.092.733.275.946.18.212.444.319.792.319.154 0 .301-.028.44-.083.14-.051.263-.13.369-.236.103-.107.185-.239.247-.396.06-.158.088-.341.088-.55V23h1.078v3.559c0 .432.087.751.259.957.172.205.425.308.759.308.23 0 .445-.06.643-.182.198-.12.38-.286.545-.495V23h1.072zm-10.21 5.588V23h1.073v5.588H42.56zm-.203 1.727c0-.099.02-.194.06-.286a.77.77 0 01.402-.396.765.765 0 01.567 0c.087.04.166.094.236.16.066.07.12.148.16.236a.763.763 0 010 .572.767.767 0 01-.16.237.726.726 0 01-.236.16.702.702 0 01-.566 0 .657.657 0 01-.237-.16.724.724 0 01-.226-.523zm-2.356-2.502a3.775 3.775 0 01-.38.352 2.31 2.31 0 01-.896.445 2.216 2.216 0 01-.55.066c-.308 0-.577-.051-.808-.154a1.592 1.592 0 01-.589-.434 1.843 1.843 0 01-.357-.666 2.91 2.91 0 01-.121-.863V23h1.078v3.559c0 .4.091.71.275.93.183.223.464.335.841.335.275 0 .534-.066.776-.198a2.54 2.54 0 00.665-.528V23h1.073v5.588h-.644c-.15 0-.244-.071-.28-.214L40 27.813zm-9.796.775V23h.644c.146 0 .241.072.285.215l.078.56c.12-.128.247-.245.379-.351.132-.107.273-.198.423-.275.15-.074.31-.13.479-.17a2.15 2.15 0 01.544-.067c.309 0 .58.052.815.154.23.103.425.246.583.43a1.9 1.9 0 01.357.67c.08.26.121.548.121.864v3.558h-1.078V25.03c0-.4-.092-.712-.275-.935-.183-.22-.464-.33-.842-.33a1.6 1.6 0 00-.77.192 2.678 2.678 0 00-.67.54v4.091h-1.073zm-3.246-5.676c.45 0 .8.127 1.045.38.242.253.363.614.363 1.083v3.344h.649c.062 0 .115.018.16.055.04.04.06.1.06.176v.435l-.908.126-.242 1.667a.251.251 0 01-.082.143.249.249 0 01-.165.055h-.545V28.5H25.71v-.78h1.584v-3.273c0-.22-.053-.385-.16-.495a.577.577 0 00-.417-.16.736.736 0 00-.253.039 1.145 1.145 0 00-.187.082 4.296 4.296 0 00-.132.088.178.178 0 01-.1.039c-.036 0-.063-.01-.082-.028a.237.237 0 01-.066-.077l-.319-.517c.176-.161.385-.286.627-.374.242-.088.494-.132.754-.132z"/>
  </g>
  <g>
    <circle cx="40" cy="40" r="40" fill="#404040" transform="rotate(-180 40 40)"/>
    <mask id="c" width="80" height="80" x="0" y="0" maskUnits="userSpaceOnUse" style="mask-type:alpha">
      <circle cx="40" cy="40" r="38" stroke="#FFB30F" stroke-linecap="round" stroke-miterlimit="9.567" stroke-width="4" transform="rotate(-180 40 40)"/>
    </mask>
    <g mask="url(#c)">
      <path fill="#FCE373" d="M40 87H0v-98h40z"/>
    </g>
    <path fill="#fff" d="M41.252 37.59V35h11.2v2.59H48.35v11.802c0 .467-.014.947-.042 1.442l2.912-2.436c.168-.13.336-.215.504-.252a1.217 1.217 0 01.84.14.888.888 0 01.252.238l1.092 1.498-6.174 5.25h-2.842V37.59h-3.64zm-15.486.63c-.373 0-.667-.107-.882-.322-.224-.205-.336-.48-.336-.826V35h13.888v1.148a1.948 1.948 0 01-.616 1.428l-6.146 6.16c-.513.523-.97 1.022-1.372 1.498a9.4 9.4 0 00-1.022 1.414c-.27.467-.476.938-.616 1.414a5.16 5.16 0 00-.224 1.526c0 .485.07.91.21 1.274.14.373.34.686.602.938.252.252.56.439.924.56.355.13.756.196 1.204.196.41 0 .793-.06 1.148-.182.345-.112.653-.275.924-.49.27-.205.5-.448.686-.728.187-.28.327-.588.42-.924.159-.43.364-.714.616-.854s.616-.173 1.092-.098l1.82.322c-.14.97-.41 1.82-.812 2.548a6.063 6.063 0 01-1.498 1.834 6.158 6.158 0 01-2.072 1.106 8.188 8.188 0 01-2.52.378c-.933 0-1.787-.14-2.562-.42a5.676 5.676 0 01-1.988-1.162 5.291 5.291 0 01-1.288-1.82c-.308-.71-.462-1.498-.462-2.366 0-.747.112-1.437.336-2.072a8.186 8.186 0 01.882-1.82 11.83 11.83 0 011.288-1.68 80.873 80.873 0 011.554-1.652l4.564-4.662c-.439.13-.873.229-1.302.294a7.446 7.446 0 01-1.246.112h-5.194zM53.246 25.789c-.19 0-.358.025-.5.077a.982.982 0 00-.364.214.883.883 0 00-.22.341 1.19 1.19 0 00-.077.435c0 .322.1.579.297.77.195.194.483.291.864.291.378 0 .665-.097.863-.291.195-.191.292-.448.292-.77a1.27 1.27 0 00-.072-.435.987.987 0 00-.22-.335 1.117 1.117 0 00-.363-.22 1.509 1.509 0 00-.5-.077zm-1.71-3.08c0 .132.036.236.11.313.073.08.174.143.302.187.125.048.271.08.44.1.169.021.346.038.533.049.184.01.373.02.567.027.194.011.381.03.56.055.192-.095.35-.21.474-.346a.696.696 0 00.093-.809.78.78 0 00-.28-.264 1.551 1.551 0 00-.479-.176 3.174 3.174 0 00-.693-.066c-.264 0-.496.024-.698.072a1.6 1.6 0 00-.506.192.864.864 0 00-.314.292.676.676 0 00-.11.374zm-1.09 5.67v-.401c0-.132.083-.215.248-.248l.6-.088a1.92 1.92 0 01-.122-.363 1.727 1.727 0 01-.044-.396c0-.275.054-.524.16-.748a1.7 1.7 0 01.44-.566c.187-.158.41-.28.67-.363a2.7 2.7 0 01.848-.127c.253 0 .49.028.71.083a.844.844 0 00.252-.22.396.396 0 00.083-.231.31.31 0 00-.16-.286 1.304 1.304 0 00-.423-.138 5.404 5.404 0 00-.6-.05c-.227-.007-.456-.02-.687-.038a5.263 5.263 0 01-.688-.088 1.928 1.928 0 01-.6-.203 1.099 1.099 0 01-.423-.385c-.11-.162-.165-.373-.165-.633 0-.242.06-.477.182-.704.117-.227.29-.429.517-.605a2.72 2.72 0 01.83-.423c.327-.107.697-.16 1.111-.16.415 0 .776.04 1.084.121.304.08.56.189.764.325.202.135.354.293.457.473.099.18.148.366.148.56a.99.99 0 01-.253.688c-.168.19-.401.34-.698.446.161.073.29.172.385.297.095.128.143.297.143.506 0 .08-.015.163-.044.247-.03.088-.073.174-.132.259a1.42 1.42 0 01-.226.247 1.8 1.8 0 01-.313.21c.275.153.491.357.649.61.158.256.236.555.236.896 0 .275-.053.523-.16.743-.105.22-.252.408-.44.566-.19.158-.415.279-.676.363a2.825 2.825 0 01-.863.127c-.484 0-.9-.101-1.249-.303h-1.55zm-3.28.297c-.41 0-.78-.068-1.11-.203a2.249 2.249 0 01-.847-.578 2.52 2.52 0 01-.54-.907 3.542 3.542 0 01-.186-1.188c0-.44.062-.838.187-1.194.124-.356.304-.658.539-.907.23-.25.513-.442.847-.578.33-.132.7-.198 1.11-.198.415 0 .79.066 1.123.198.33.136.612.328.847.578.234.249.416.551.544.907.125.356.187.754.187 1.194 0 .44-.062.836-.187 1.188-.128.355-.31.658-.544.907a2.308 2.308 0 01-.847.578 2.956 2.956 0 01-1.122.203zm0-4.917c-.527 0-.921.178-1.182.534-.26.355-.39.856-.39 1.501 0 .645.13 1.146.39 1.502.26.359.655.539 1.183.539.535 0 .935-.18 1.199-.54.26-.355.39-.856.39-1.5 0-.646-.13-1.147-.39-1.502-.264-.356-.664-.534-1.2-.534zm-7.483 3.476c.176.231.367.392.572.484.202.092.43.138.682.138.491 0 .873-.178 1.144-.534.268-.352.402-.867.402-1.545a4.1 4.1 0 00-.088-.913 1.838 1.838 0 00-.264-.616 1.1 1.1 0 00-.43-.352 1.42 1.42 0 00-.571-.11c-.312 0-.582.07-.809.209a2.44 2.44 0 00-.638.588v2.651zm-1.078 3.883V23h.65c.15 0 .243.072.28.215l.093.643c.238-.282.51-.51.814-.682a2.1 2.1 0 011.045-.253c.32 0 .609.062.87.187.256.125.476.306.66.545.182.242.324.54.423.896.099.356.148.765.148 1.227 0 .414-.055.799-.165 1.155-.11.355-.27.663-.478.924-.21.26-.462.463-.76.61-.296.15-.632.226-1.006.226-.337 0-.623-.055-.858-.165a2.02 2.02 0 01-.638-.468v3.058h-1.078zm-5.39-2.98c0-.078.014-.153.044-.226a.576.576 0 01.104-.187l2.932-3.883h-2.981V23h4.24v.451a.732.732 0 01-.148.385l-2.948 3.91h2.926v.842h-4.17v-.45zm-2.223.45V23h1.072v5.588h-1.072zm-.204 1.727c0-.099.02-.194.06-.286a.767.767 0 01.401-.396.763.763 0 01.568 0c.088.04.166.094.236.16.066.07.12.148.16.236a.762.762 0 010 .572.768.768 0 01-.16.237.73.73 0 01-.236.16.703.703 0 01-.567 0 .66.66 0 01-.236-.16.722.722 0 01-.226-.523zm-2.356-2.502a3.798 3.798 0 01-.38.352 2.325 2.325 0 01-.896.445 2.217 2.217 0 01-.55.066c-.308 0-.577-.051-.808-.154a1.591 1.591 0 01-.589-.434 1.842 1.842 0 01-.357-.666 2.907 2.907 0 01-.121-.863V23h1.078v3.559c0 .4.091.71.275.93.183.223.464.335.841.335.275 0 .534-.066.776-.198.238-.129.46-.305.665-.528V23h1.073v5.588h-.644c-.15 0-.244-.071-.28-.214l-.083-.561z"/>
  </g>
  <g>
    <circle cx="40" cy="40" r="40" fill="#404040"/>
    <mask id="d" width="80" height="80" x="0" y="0" maskUnits="userSpaceOnUse" style="mask-type:alpha">
      <circle cx="40" cy="40" r="38" stroke="#F8E280" stroke-linecap="round" stroke-miterlimit="9.567" stroke-width="4"/>
    </mask>
    <g mask="url(#d)">
      <path fill="#FCE373" d="M0 45h76v41H0z"/>
      <path fill="#FCE373" d="M40-7h40v98H40z"/>
    </g>
    <path fill="#fff" d="M39.687 32.106l-.7.868a5.603 5.603 0 011.26-.448 6.165 6.165 0 011.47-.168 6.68 6.68 0 012.226.378 5.34 5.34 0 011.918 1.148c.55.504.994 1.134 1.33 1.89.336.756.504 1.638.504 2.646a6.86 6.86 0 01-.518 2.66 6.568 6.568 0 01-1.456 2.156 6.77 6.77 0 01-2.268 1.456c-.877.355-1.848.532-2.912.532-1.083 0-2.053-.173-2.912-.518a6.386 6.386 0 01-2.198-1.442 6.422 6.422 0 01-1.4-2.24c-.317-.877-.476-1.848-.476-2.912 0-.952.191-1.927.574-2.926.392-1.008.994-2.053 1.806-3.136l4.83-6.482c.168-.224.41-.415.728-.574.327-.159.7-.238 1.12-.238h3.08l-6.006 7.35zm.784 10.29c.55 0 1.055-.093 1.512-.28a3.393 3.393 0 001.19-.784c.336-.336.597-.728.784-1.176.187-.457.28-.952.28-1.484 0-.579-.089-1.097-.266-1.554a3.193 3.193 0 00-.756-1.176 3.198 3.198 0 00-1.176-.742 4.355 4.355 0 00-1.512-.252c-.55 0-1.05.093-1.498.28-.448.187-.83.448-1.148.784a3.459 3.459 0 00-.742 1.176 3.921 3.921 0 00-.266 1.456c0 .56.075 1.073.224 1.54.159.457.387.85.686 1.176.308.327.686.583 1.134.77.448.177.966.266 1.554.266zM36.853 52.765c-.176-.23-.367-.392-.572-.484a1.63 1.63 0 00-.682-.137c-.492 0-.873.177-1.144.533-.268.352-.402.867-.402 1.546 0 .355.03.66.088.913.062.249.15.454.264.616.117.157.26.275.43.352.168.073.358.11.571.11.312 0 .581-.07.809-.21.227-.139.44-.335.638-.588v-2.65zm1.078-3.883V57h-.65c-.15 0-.243-.071-.28-.214l-.093-.644c-.239.282-.51.51-.814.682a2.1 2.1 0 01-1.045.253c-.32 0-.61-.062-.87-.187a1.841 1.841 0 01-.66-.544 2.642 2.642 0 01-.423-.897 4.587 4.587 0 01-.148-1.226c0-.415.055-.8.165-1.155.11-.356.27-.664.478-.924.21-.26.462-.464.76-.61.296-.151.632-.226 1.006-.226.337 0 .623.055.858.165.238.11.45.265.638.467v-3.058h1.078zm2.502 3.306c.121-.129.248-.246.38-.352a2.314 2.314 0 01.896-.446c.173-.044.356-.066.55-.066.308 0 .578.051.809.154.235.103.43.248.588.435.158.183.277.405.358.665.08.26.12.548.12.864V57h-1.077v-3.558c0-.4-.092-.71-.275-.93-.183-.224-.464-.335-.842-.335-.275 0-.533.066-.775.198-.239.128-.46.304-.666.528V57h-1.072v-5.588h.643c.15 0 .244.072.28.215l.083.56zm6.271-.776V57h-1.072v-5.588h1.072zm.204-1.727c0 .1-.02.194-.06.286a.768.768 0 01-.401.396.765.765 0 01-.568 0 .868.868 0 01-.236-.16.866.866 0 01-.16-.236.763.763 0 010-.572.767.767 0 01.16-.236.727.727 0 01.236-.16.702.702 0 01.566 0c.092.037.171.09.237.16a.721.721 0 01.226.522z"/>
  </g>
</svg>
