<svg xmlns="http://www.w3.org/2000/svg" width="269" height="60" fill="none" viewBox="0 0 269 60">
  <rect width="269" height="60" fill="#0C1CAD" rx="5"/>
  <path stroke="#fff" stroke-linecap="round" stroke-linejoin="round" stroke-width="2.5" d="M45 36.67V23.328a2.5 2.5 0 00-1.241-2.157L31.884 14.26a3.745 3.745 0 00-3.77 0l-11.873 6.91A2.5 2.5 0 0015 23.33v13.34a2.5 2.5 0 001.241 2.16l11.875 6.91a3.75 3.75 0 003.77 0l11.874-6.91a2.499 2.499 0 001.24-2.16z"/>
  <path stroke="#fff" stroke-linecap="round" stroke-linejoin="round" stroke-width="2.5" d="M15.39 22.03L30 30.624l14.61-8.593M30 46.25V30.623"/>
  <path fill="#fff" d="M30 23.125c1.035 0 1.875-.56 1.875-1.25s-.84-1.25-1.875-1.25c-1.035 0-1.875.56-1.875 1.25s.84 1.25 1.875 1.25zM26.25 35c.69 0 1.25-.84 1.25-1.875 0-1.035-.56-1.875-1.25-1.875S25 32.09 25 33.125C25 34.16 25.56 35 26.25 35zM18.75 37.5c.69 0 1.25-.84 1.25-1.875 0-1.035-.56-1.875-1.25-1.875s-1.25.84-1.25 1.875c0 1.035.56 1.875 1.25 1.875zM33.75 35c.69 0 1.25-.84 1.25-1.875 0-1.035-.56-1.875-1.25-1.875s-1.25.84-1.25 1.875c0 1.035.56 1.875 1.25 1.875zM41.25 30.625c.69 0 1.25-.84 1.25-1.875 0-1.035-.56-1.875-1.25-1.875S40 27.715 40 28.75c0 1.035.56 1.875 1.25 1.875zM33.75 41.875c.69 0 1.25-.84 1.25-1.875 0-1.035-.56-1.875-1.25-1.875s-1.25.84-1.25 1.875c0 1.035.56 1.875 1.25 1.875zM41.25 37.5c.69 0 1.25-.84 1.25-1.875 0-1.035-.56-1.875-1.25-1.875S40 34.59 40 35.625c0 1.035.56 1.875 1.25 1.875zM91.825 22.648L86.437 40H83.52l-3.792-11.856c-.104-.288-.2-.64-.288-1.056-.048.2-.096.388-.144.564-.048.176-.1.34-.156.492L75.313 40h-2.928l-5.376-17.352h2.7c.28 0 .512.068.696.204.192.128.32.304.384.528l2.952 10.38c.064.256.124.536.18.84.064.296.128.608.192.936.064-.336.132-.652.204-.948.08-.296.164-.572.252-.828l3.408-10.38a1.15 1.15 0 01.372-.504c.192-.152.424-.228.696-.228h.948c.28 0 .508.068.684.204.176.136.308.312.396.528l3.396 10.38c.168.496.32 1.068.456 1.716.104-.632.22-1.204.348-1.716l2.952-10.38a.905.905 0 01.36-.516c.2-.144.436-.216.708-.216h2.532zm12.425 5.04l-6.708 15.696a1.075 1.075 0 01-.348.468c-.136.112-.348.168-.636.168H94.35l2.304-4.944-4.98-11.388h2.604c.232 0 .412.056.54.168.136.112.236.24.3.384l2.616 6.384c.088.216.16.432.216.648.064.216.124.436.18.66.072-.224.144-.444.216-.66.072-.224.152-.444.24-.66l2.472-6.372a.873.873 0 01.816-.552h2.376zm4.472-5.52V40h-2.964V22.168h2.964zm8.401 5.328c.912 0 1.74.148 2.484.444a5.384 5.384 0 011.92 1.26 5.492 5.492 0 011.236 1.992c.288.784.432 1.66.432 2.628 0 .976-.144 1.856-.432 2.64a5.611 5.611 0 01-1.236 2.004 5.307 5.307 0 01-1.92 1.272c-.744.296-1.572.444-2.484.444-.92 0-1.756-.148-2.508-.444a5.424 5.424 0 01-1.932-1.272 5.845 5.845 0 01-1.236-2.004c-.288-.784-.432-1.664-.432-2.64 0-.968.144-1.844.432-2.628.296-.784.708-1.448 1.236-1.992a5.504 5.504 0 011.932-1.26c.752-.296 1.588-.444 2.508-.444zm0 10.404c1.024 0 1.78-.344 2.268-1.032.496-.688.744-1.696.744-3.024s-.248-2.34-.744-3.036c-.488-.696-1.244-1.044-2.268-1.044-1.04 0-1.812.352-2.316 1.056-.496.696-.744 1.704-.744 3.024s.248 2.328.744 3.024c.504.688 1.276 1.032 2.316 1.032zm15.845-7.812a.858.858 0 01-.252.276.697.697 0 01-.336.072c-.144 0-.3-.04-.468-.12a13.91 13.91 0 00-.564-.264 4.687 4.687 0 00-.744-.276 3.47 3.47 0 00-.972-.12c-.584 0-1.044.124-1.38.372a1.163 1.163 0 00-.492.972.96.96 0 00.252.672c.176.176.404.332.684.468.288.136.612.26.972.372.36.104.724.22 1.092.348.376.128.744.276 1.104.444.36.16.68.368.96.624.288.248.516.548.684.9.176.352.264.776.264 1.272a4.13 4.13 0 01-.324 1.644c-.208.496-.52.928-.936 1.296-.416.36-.932.644-1.548.852-.608.2-1.312.3-2.112.3-.424 0-.84-.04-1.248-.12a6.782 6.782 0 01-2.196-.792 5.122 5.122 0 01-.828-.6l.684-1.128a.967.967 0 01.312-.312.875.875 0 01.456-.108.93.93 0 01.516.156c.168.104.36.216.576.336.216.12.468.232.756.336.296.104.668.156 1.116.156.352 0 .652-.04.9-.12.256-.088.464-.2.624-.336.168-.136.288-.292.36-.468.08-.184.12-.372.12-.564 0-.288-.088-.524-.264-.708a2.162 2.162 0 00-.684-.48 5.908 5.908 0 00-.972-.36c-.36-.112-.732-.232-1.116-.36a11.992 11.992 0 01-1.116-.444 4.084 4.084 0 01-.972-.66 3.083 3.083 0 01-.684-.972c-.168-.384-.252-.848-.252-1.392 0-.504.1-.984.3-1.44.2-.456.492-.852.876-1.188.392-.344.876-.616 1.452-.816.584-.208 1.256-.312 2.016-.312.848 0 1.62.14 2.316.42.696.28 1.276.648 1.74 1.104l-.672 1.068zm13.643-2.4V40h-1.812c-.392 0-.64-.18-.744-.54l-.204-.984a6.736 6.736 0 01-1.668 1.248c-.608.312-1.324.468-2.148.468-.672 0-1.268-.112-1.788-.336a3.642 3.642 0 01-1.296-.972 4.315 4.315 0 01-.804-1.476 6.465 6.465 0 01-.264-1.896v-7.824h2.964v7.824c0 .752.172 1.336.516 1.752.352.408.876.612 1.572.612.512 0 .992-.112 1.44-.336a5.16 5.16 0 001.272-.948v-8.904h2.964zm6.011 0V40.42c0 .536-.072 1.04-.216 1.512-.136.472-.36.884-.672 1.236-.304.36-.708.64-1.212.84-.496.208-1.104.312-1.824.312-.28 0-.54-.02-.78-.06a4.484 4.484 0 01-.744-.168l.108-1.596c.024-.16.088-.264.192-.312.104-.04.304-.06.6-.06s.544-.032.744-.096a.974.974 0 00.492-.288c.12-.128.204-.3.252-.516.056-.216.084-.484.084-.804V27.688h2.976zm.408-3.588c0 .256-.052.496-.156.72-.104.224-.244.42-.42.588a1.951 1.951 0 01-.612.408c-.232.096-.48.144-.744.144-.256 0-.496-.048-.72-.144a2.036 2.036 0 01-.588-.408 2.036 2.036 0 01-.408-.588 1.808 1.808 0 01-.144-.72c0-.264.048-.512.144-.744a1.99 1.99 0 01.408-.6c.168-.168.364-.3.588-.396a1.798 1.798 0 011.464 0c.24.096.444.228.612.396.176.168.316.368.42.6.104.232.156.48.156.744zm13.898 3.396c.912 0 1.74.148 2.484.444a5.384 5.384 0 011.92 1.26 5.492 5.492 0 011.236 1.992c.288.784.432 1.66.432 2.628 0 .976-.144 1.856-.432 2.64a5.611 5.611 0 01-1.236 2.004 5.307 5.307 0 01-1.92 1.272c-.744.296-1.572.444-2.484.444-.92 0-1.756-.148-2.508-.444a5.424 5.424 0 01-1.932-1.272 5.845 5.845 0 01-1.236-2.004c-.288-.784-.432-1.664-.432-2.64 0-.968.144-1.844.432-2.628.296-.784.708-1.448 1.236-1.992a5.504 5.504 0 011.932-1.26c.752-.296 1.588-.444 2.508-.444zm0 10.404c1.024 0 1.78-.344 2.268-1.032.496-.688.744-1.696.744-3.024s-.248-2.34-.744-3.036c-.488-.696-1.244-1.044-2.268-1.044-1.04 0-1.812.352-2.316 1.056-.496.696-.744 1.704-.744 3.024s.248 2.328.744 3.024c.504.688 1.276 1.032 2.316 1.032zm8.892 2.1V29.92l-1.068-.168a1.353 1.353 0 01-.564-.24c-.136-.12-.204-.288-.204-.504v-1.212h1.836v-.912c0-.704.104-1.336.312-1.896.216-.56.52-1.036.912-1.428.4-.392.884-.692 1.452-.9.568-.208 1.208-.312 1.92-.312.568 0 1.096.076 1.584.228l-.06 1.488a.496.496 0 01-.096.276.606.606 0 01-.228.156 1.498 1.498 0 01-.312.072c-.12.008-.248.012-.384.012-.352 0-.668.04-.948.12a1.513 1.513 0 00-.696.396c-.192.184-.34.432-.444.744-.096.304-.144.684-.144 1.14v.816h3.204v2.112h-3.108V40h-2.964zm15.342-7.572c0-.384-.056-.744-.168-1.08a2.498 2.498 0 00-.48-.9 2.192 2.192 0 00-.828-.6c-.328-.152-.712-.228-1.152-.228-.856 0-1.532.244-2.028.732-.488.488-.8 1.18-.936 2.076h5.592zm-5.652 1.788c.048.632.16 1.18.336 1.644.176.456.408.836.696 1.14.288.296.628.52 1.02.672.4.144.84.216 1.32.216.48 0 .892-.056 1.236-.168a5.52 5.52 0 00.912-.372 15.1 15.1 0 00.684-.372c.2-.112.392-.168.576-.168.248 0 .432.092.552.276l.852 1.08a5.072 5.072 0 01-1.104.972 6.562 6.562 0 01-1.284.624c-.44.152-.892.26-1.356.324a9.58 9.58 0 01-1.332.096 6.66 6.66 0 01-2.388-.42 5.453 5.453 0 01-1.92-1.26c-.544-.56-.972-1.248-1.284-2.064-.312-.824-.468-1.776-.468-2.856 0-.84.136-1.628.408-2.364a5.672 5.672 0 011.164-1.932 5.546 5.546 0 011.86-1.308c.736-.32 1.564-.48 2.484-.48.776 0 1.492.124 2.148.372.656.248 1.22.612 1.692 1.092.472.472.84 1.056 1.104 1.752.272.688.408 1.476.408 2.364 0 .448-.048.752-.144.912-.096.152-.28.228-.552.228h-7.62zm13.336-4.392c.384-.736.84-1.312 1.368-1.728.528-.424 1.152-.636 1.872-.636.568 0 1.024.124 1.368.372l-.192 2.22a.588.588 0 01-.18.312.478.478 0 01-.3.084c-.12 0-.3-.02-.54-.06-.232-.04-.46-.06-.684-.06-.328 0-.62.048-.876.144a2.218 2.218 0 00-.696.42c-.2.176-.38.392-.54.648a6.88 6.88 0 00-.432.876V40h-2.964V27.688h1.74c.304 0 .516.056.636.168.12.104.2.296.24.576l.18 1.392zm10.261 10.368c-1.072 0-1.896-.3-2.472-.9-.568-.608-.852-1.444-.852-2.508v-6.876h-1.26a.578.578 0 01-.408-.156c-.112-.104-.168-.26-.168-.468v-1.176l1.98-.324.624-3.36a.658.658 0 01.228-.372.678.678 0 01.432-.132h1.536v3.876h3.288v2.112h-3.288v6.672c0 .384.092.684.276.9.192.216.452.324.78.324.184 0 .336-.02.456-.06.128-.048.236-.096.324-.144.096-.048.18-.092.252-.132a.387.387 0 01.216-.072.32.32 0 01.216.072.85.85 0 01.18.192l.888 1.44c-.432.36-.928.632-1.488.816-.56.184-1.14.276-1.74.276zm12.664-7.764c0-.384-.056-.744-.168-1.08a2.498 2.498 0 00-.48-.9 2.192 2.192 0 00-.828-.6c-.328-.152-.712-.228-1.152-.228-.856 0-1.532.244-2.028.732-.488.488-.8 1.18-.936 2.076h5.592zm-5.652 1.788c.048.632.16 1.18.336 1.644.176.456.408.836.696 1.14.288.296.628.52 1.02.672.4.144.84.216 1.32.216.48 0 .892-.056 1.236-.168a5.52 5.52 0 00.912-.372 15.1 15.1 0 00.684-.372c.2-.112.392-.168.576-.168.248 0 .432.092.552.276l.852 1.08c-.48.56-1.036.988-1.668 1.284-.632.296-1.28.5-1.944.612-.152.088-.3.188-.444.3-.136.112-.26.232-.372.36-.104.136-.188.28-.252.432a1.224 1.224 0 00-.096.48c0 .24.076.428.228.564.152.144.364.216.636.216.152 0 .276-.008.372-.024.096-.016.172-.036.228-.06l.156-.06a.42.42 0 01.132-.024c.144 0 .236.064.276.192l.456 1.092c-.264.176-.596.32-.996.432a4.24 4.24 0 01-1.248.18c-.784 0-1.388-.164-1.812-.492-.424-.328-.636-.752-.636-1.272 0-.408.124-.8.372-1.176.248-.376.604-.72 1.068-1.032a6.32 6.32 0 01-2.22-.528 5.47 5.47 0 01-1.776-1.296c-.496-.56-.888-1.236-1.176-2.028-.28-.8-.42-1.712-.42-2.736 0-.84.136-1.628.408-2.364a5.672 5.672 0 011.164-1.932 5.546 5.546 0 011.86-1.308c.736-.32 1.564-.48 2.484-.48.776 0 1.492.124 2.148.372.656.248 1.22.612 1.692 1.092.472.472.84 1.056 1.104 1.752.272.688.408 1.476.408 2.364 0 .448-.048.752-.144.912-.096.152-.28.228-.552.228h-7.62z"/>
</svg>
